<?xml version="1.0" encoding="utf-8"?>
<!-- Generator: Adobe Illustrator 15.0.2, SVG Export Plug-In . SVG Version: 6.00 Build 0)  -->
<!DOCTYPE svg PUBLIC "-//W3C//DTD SVG 1.1//EN" "http://www.w3.org/Graphics/SVG/1.1/DTD/svg11.dtd">
<svg version="1.1" id="Layer_1" xmlns="http://www.w3.org/2000/svg" xmlns:xlink="http://www.w3.org/1999/xlink" x="0px" y="0px"
	 width="378.243px" height="110.397px" viewBox="13.201 -0.45 378.243 110.397"
	 enable-background="new 13.201 -0.45 378.243 110.397" xml:space="preserve">
<path fill="#231F20" d="M291.141,92.374l-0.04,0.119h19.612l-0.435-0.991l-0.554-1.266l2.449,1.714
	c0.331-0.518-0.929-3.661-0.542-3.738c0.382-0.078,1.584,1.6,1.949,1.854l0.071-1.047l-0.071,1.047l-0.062,1.058l-1.347,0.826
	l-0.882,0.543h7.903c0.016-0.115,0.078-0.22,0.188-0.241c0.143-0.025,0.278,0.072,0.308,0.218c0.004,0.008-0.006,0.021-0.006,0.023
	h1.43c-0.024-0.099-0.05-0.197-0.076-0.302l-0.271-1.067l-1.646,0.416l-1.644,0.417l-0.073-0.417
	c-0.046-0.225,0.553-0.856,1.333-1.399l1.411-0.98l-0.087-0.476c-0.048-0.27,0.144-0.525,0.428-0.588l0.51-0.105l0.161,0.865
	l0.154,0.859l1.067,0.078l1.076,0.074l0.149,0.812l0.144,0.813l0.915-0.468l0.918-0.464l0.781,0.322l0.773,0.327l-1.515,0.406
	c-0.832,0.225-1.802,0.449-2.151,0.515l-0.646,0.104l0.045,0.252h2.594c1.14,0,1.984-0.306,2.59-0.875l-0.561,0.109l-0.087-0.506
	l-0.091-0.512l0.996-0.566l0.619-0.354c0.065-0.357,0.153-0.702,0.153-1.129v-14.32c0-2.56-1.209-3.833-3.622-3.833h-26.896
	c-2.285,0-3.614-1.408-3.614-3.84V33.791l-0.259-0.025l-0.998-0.101l0.699-0.252l0.558-0.196v-2.253
	c-0.123-0.503-0.306-1.089-0.532-1.612l-0.712-1.67l0.665,0.049c0.153,0.004,0.368,0.076,0.579,0.16V6.836
	c0-1.406-0.402-2.387-1.132-3.019l0.113,1.268l0.14,1.562l-0.986,0.213l-0.986,0.22l0.652-0.751l0.649-0.745l-0.843-0.048
	l-0.842-0.051l0.033-0.76l0.042-0.763l1.005-0.221l0.672-0.146c-0.564-0.356-1.236-0.592-2.136-0.592h-0.484l0.2,0.198l-0.854-0.033
	l-0.854-0.027l-0.042-0.138h-11.475c-0.987,0-1.771,0.248-2.376,0.719l0.016,0.158l0.113,1.254l-0.511-0.032l-0.517-0.026
	l0.011-0.144c-0.223,0.53-0.348,1.154-0.348,1.904V88.66c0,2.427,1.322,3.833,3.616,3.833h12.756L291.141,92.374z M325.282,84.754
	l0.719,0.522l-0.211,0.332l-0.212,0.335l-0.409-0.297c-0.222-0.157-0.453-0.541-0.506-0.85l-0.104-0.558L325.282,84.754z
	 M324.529,88.961l-0.682,0.144l-0.679,0.137l0.275-0.432l0.271-0.435l0.408,0.297L324.529,88.961z M322.875,85.166l0.707-0.473
	l0.102,0.525l0.093,0.526l-0.766,0.158c-0.425,0.082-0.786,0.061-0.806-0.062C322.184,85.73,322.484,85.423,322.875,85.166z
	 M322.664,87.664l1.152-0.227l-0.672,0.682c-0.368,0.37-0.849,0.723-1.056,0.766c-0.212,0.051-0.423-0.152-0.479-0.454l-0.103-0.541
	L322.664,87.664z M318.01,88.408l1.069-0.536l0.314,0.225l0.311,0.224l-0.656,0.658c-0.367,0.36-0.949,0.719-1.302,0.788
	l-0.636,0.144l-0.087-0.479l-0.083-0.479L318.01,88.408z M316.5,89.471l0.101,0.535l-0.537,0.114l-0.543,0.11l0.218-0.608
	c0.119-0.327,0.319-0.622,0.442-0.646C316.304,88.95,316.45,89.17,316.5,89.471z M315.658,86.273
	c0.141-0.027,0.279,0.068,0.305,0.22c0.025,0.146-0.062,0.294-0.206,0.319c-0.141,0.029-0.271-0.068-0.305-0.219
	C315.426,86.449,315.52,86.3,315.658,86.273z M314.542,85.939c0.142-0.027,0.275,0.063,0.302,0.219
	c0.029,0.146-0.062,0.292-0.208,0.323c-0.139,0.026-0.272-0.071-0.3-0.223C314.313,86.107,314.399,85.966,314.542,85.939z
	 M311.692,86.743c0.36,0.146,0.681,0.373,0.701,0.504c0.024,0.132-0.057,0.263-0.182,0.286c-0.124,0.021-0.438-0.204-0.703-0.506
	l-0.479-0.553L311.692,86.743z M307.802,86.743c0.141-0.026,0.279,0.068,0.307,0.219c0.022,0.154-0.067,0.296-0.206,0.324
	c-0.143,0.025-0.281-0.072-0.309-0.221C307.57,86.919,307.661,86.77,307.802,86.743z M304.659,84.01
	c0.141-0.027,0.278,0.071,0.306,0.222c0.026,0.158-0.066,0.294-0.206,0.327c-0.141,0.021-0.278-0.073-0.306-0.226
	C304.428,84.187,304.521,84.042,304.659,84.01z M299.773,89.685l0.272-0.428l0.409,0.289l0.401,0.292l-0.683,0.137l-0.683,0.143
	L299.773,89.685z M292.938,17.696c0.142,0.011,0.253,0.144,0.242,0.29c-0.004,0.153-0.123,0.27-0.272,0.264
	c-0.14-0.011-0.248-0.136-0.241-0.291C292.674,17.813,292.793,17.69,292.938,17.696z M292.721,32.598
	c0.141,0.005,0.247,0.138,0.243,0.29c-0.013,0.147-0.132,0.263-0.274,0.258c-0.145-0.006-0.253-0.138-0.246-0.291
	C292.452,32.702,292.571,32.593,292.721,32.598z M275.746,7.346c-0.146-0.008-0.255-0.137-0.25-0.284
	c0.006-0.151,0.131-0.27,0.273-0.26c0.146,0.008,0.253,0.133,0.249,0.284C276.008,7.243,275.884,7.357,275.746,7.346z
	 M291.094,83.677c-0.023-0.144,0.067-0.29,0.206-0.318c0.145-0.032,0.279,0.071,0.301,0.22c0.035,0.148-0.062,0.29-0.201,0.322
	C291.26,83.93,291.125,83.834,291.094,83.677z M291.703,90.949l-0.278,0.432l-0.128-0.722l-0.131-0.724l0.401,0.296l0.409,0.284
	L291.703,90.949z M291.544,14.308c0.145,0.01,0.253,0.143,0.246,0.289c-0.009,0.153-0.128,0.271-0.272,0.257
	c-0.146-0.005-0.251-0.131-0.248-0.285C291.279,14.417,291.403,14.3,291.544,14.308z M290.944,5.44
	c0.14,0.011,0.253,0.139,0.243,0.29c-0.006,0.15-0.13,0.27-0.27,0.264c-0.146-0.013-0.259-0.144-0.248-0.289
	C290.681,5.552,290.801,5.436,290.944,5.44z M289.456,9.224l0.548,0.028l0.547,0.032l-0.345,0.523
	c-0.191,0.297-0.45,0.53-0.573,0.526c-0.132-0.012-0.219-0.265-0.208-0.563L289.456,9.224z M290.474,13.139l-0.366,0.356
	l-0.361,0.345l0.036-0.737l0.034-0.729l0.327,0.383L290.474,13.139z M279.95,16.974c-0.141-0.013-0.253-0.139-0.241-0.29
	c0.003-0.152,0.128-0.271,0.27-0.264c0.145,0.013,0.257,0.144,0.246,0.289C280.219,16.862,280.096,16.979,279.95,16.974z
	 M279.46,15.177l-0.768,0.673l-0.276-0.909l-0.277-0.9l0.53-0.516l0.532-0.505l0.517,0.745l0.514,0.738L279.46,15.177z
	 M281.866,9.897c-0.145-0.006-0.254-0.136-0.242-0.291c0.005-0.146,0.124-0.263,0.27-0.256c0.146,0.004,0.253,0.137,0.249,0.289
	C282.13,9.796,282.007,9.907,281.866,9.897z M282.157,5.866l-0.369,0.351l0.042-0.732l0.036-0.731l0.325,0.383l0.327,0.384
	L282.157,5.866z M285.788,9.57l-1.009-0.062l-1.008-0.055l-0.295-0.569l-0.297-0.574l0.805-0.279l0.802-0.273l0.531,0.391
	c0.289,0.213,0.512,0.619,0.495,0.903L285.788,9.57z M286.16,7.379c-0.145-0.007-0.253-0.136-0.247-0.292
	c0.01-0.146,0.128-0.269,0.271-0.261c0.146,0.017,0.254,0.142,0.249,0.294C286.423,7.27,286.299,7.389,286.16,7.379z
	 M288.241,91.361l-0.083-0.472h1.323c0.729,0,1.344,0.093,1.362,0.201c0.021,0.12-0.534,0.329-1.238,0.473l-1.275,0.262
	L288.241,91.361z"/>
<path fill="#231F20" d="M262.851,11.662l-0.666-0.5l0.69-0.239V6.836c0-0.116-0.036-0.187-0.042-0.29l-0.069-0.012l0.069-0.021
	c-0.111-2.313-1.279-3.511-3.579-3.511h-3.937c0.029,0.158,0.052,0.309,0.046,0.403c-0.017,0.33-0.206,0.575-0.42,0.556
	c-0.21-0.026-0.773-0.396-1.249-0.815l-0.161-0.144h-6.373l0.401,0.138l-0.024,0.487l-0.021,0.479l-0.648-0.037
	c-0.356-0.024-0.979-0.297-1.387-0.603l-0.543-0.407c-1.792,0.281-2.805,1.537-2.805,3.773v50.117
	c0,9.847-0.604,15.855-9.531,15.855c-8.921,0-9.526-6.011-9.526-15.855V22.269l-0.158-0.069l0.158-0.165V6.836
	c0-2.559-1.203-3.833-3.615-3.833h-13.51c-2.295,0-3.615,1.274-3.615,3.833v24.179c0.024,0.052,0.081,0.11,0.078,0.148
	c0,0.065-0.03,0.125-0.078,0.165v32.396c0,8.438,1.688,31.067,30.269,31.067c28.586,0,30.272-22.629,30.272-31.067v-52.04
	C262.865,11.672,262.861,11.672,262.851,11.662z M207.737,5.741c-0.364-0.026-0.975-0.278-1.354-0.563l-0.688-0.516l0.49-0.811
	l0.496-0.811l0.86,1.374l0.869,1.374L207.737,5.741z M218.138,3.019c0.146,0.008,0.259,0.138,0.248,0.292
	c-0.008,0.151-0.131,0.27-0.275,0.261c-0.137-0.01-0.253-0.142-0.241-0.29C217.873,3.128,217.998,3.015,218.138,3.019z
	 M213.917,20.687l0.095-1.058l0.236,0.733l0.236,0.744l-0.338,0.307l-0.323,0.324L213.917,20.687z M210.782,14.751
	c0.143,0.01,0.257,0.144,0.245,0.295c-0.006,0.154-0.135,0.269-0.271,0.259c-0.141-0.008-0.256-0.137-0.244-0.285
	C210.522,14.866,210.642,14.744,210.782,14.751z M210.771,16.782l-0.367,0.347l0.038-0.734l0.04-0.734l0.325,0.391l0.324,0.386
	L210.771,16.782z M211.681,28.058c-0.142-0.006-0.25-0.137-0.243-0.291c0.009-0.146,0.134-0.269,0.273-0.258
	c0.146,0.006,0.252,0.139,0.247,0.286C211.95,27.949,211.831,28.063,211.681,28.058z M211.74,21.712l-0.536,0.306l0.043-0.854
	l0.041-0.854l0.521,0.025c0.282,0.018,0.506,0.266,0.496,0.55C212.29,21.169,212.037,21.542,211.74,21.712z M213.245,17.653
	c-0.144-0.006-0.252-0.137-0.248-0.285c0.01-0.152,0.13-0.271,0.272-0.268c0.146,0.01,0.254,0.142,0.248,0.295
	C213.508,17.543,213.39,17.663,213.245,17.653z M214.402,29.054l-0.312,0.292l-0.311-1.01l-0.299-1.008l0.607,0.719l0.615,0.712
	L214.402,29.054z M217.911,7.626l-0.798,0.271l0.031-0.536l0.024-0.53l0.773,0.045c0.432,0.021,0.78,0.135,0.771,0.263
	C218.712,7.253,218.349,7.472,217.911,7.626z M221.578,30.122l-0.926,0.882l0.047-0.909l0.047-0.913l0.567-0.328l0.575-0.33
	l0.304,0.355l0.311,0.359L221.578,30.122z M250.809,5.955c-0.145-0.012-0.249-0.143-0.244-0.291c0.014-0.152,0.132-0.27,0.27-0.263
	c0.149,0.012,0.261,0.137,0.248,0.29C251.077,5.847,250.952,5.96,250.809,5.955z M251.386,4.883
	c-0.145-0.007-0.257-0.14-0.246-0.292c0.004-0.152,0.128-0.268,0.27-0.264c0.148,0.013,0.257,0.145,0.253,0.291
	C251.651,4.772,251.526,4.885,251.386,4.883z M252.807,7.724c-0.145-0.012-0.253-0.144-0.242-0.29
	c0.005-0.154,0.124-0.27,0.27-0.265c0.141,0.012,0.253,0.137,0.248,0.292C253.075,7.614,252.947,7.73,252.807,7.724z M252.538,4.394
	l0.367-0.349l0.361-0.348l0.325,0.391l0.329,0.383l-0.69-0.038L252.538,4.394z M253.789,8.885c-0.141-0.01-0.255-0.142-0.242-0.294
	c0.005-0.148,0.128-0.27,0.273-0.259c0.139,0.005,0.253,0.136,0.247,0.292C254.059,8.769,253.934,8.89,253.789,8.885z
	 M255.883,13.966l-0.692-0.036l0.359-0.346l0.367-0.351l0.331,0.389l0.324,0.384L255.883,13.966z M256.037,12.543l-0.556,0.316
	l-0.312-0.618l-0.314-0.612l0.336-0.323l0.336-0.323l0.524,0.625l0.528,0.619L256.037,12.543z M257.262,12.384
	c-0.146-0.007-0.256-0.136-0.249-0.284c0.012-0.152,0.13-0.269,0.272-0.264c0.146,0.013,0.26,0.139,0.248,0.29
	C257.528,12.282,257.405,12.396,257.262,12.384z"/>
<path fill="#231F20" d="M177.113,3.003h-15.786h-1.97l-0.307,1.242c-0.256,1.073-0.584,2.219-0.718,2.537l-0.251,0.586l-0.945-0.636
	l-0.94-0.629l0.646-1.108c0.237-0.408,0.632-1.188,1.014-1.992h-7.713l0.378,0.467c0.217,0.269,0.367,0.597,0.325,0.722
	c-0.036,0.134-0.289,0.159-0.562,0.065l-0.497-0.168l0.166-0.555l0.16-0.531h-14.107c-2.381,0.125-3.58,1.38-3.604,3.876
	l0.704,0.122l1.457,0.257l-0.054,1.063l-0.05,1.064l-0.521-0.857l-0.52-0.855l-0.253,0.855l-0.257,0.85l-0.528-0.176v61.557
	l1.282,0.514l-0.537,1.188l-0.537,1.186l0.733-0.021l0.729-0.018l0.301-1.146l0.306-1.14l0.351,0.115
	c0.189,0.065,0.507,0.537,0.696,1.036l0.354,0.913l-2.195,1.021l-1.479,0.68v7.438l0.886-0.021l0.137,0.586l0.142,0.593
	l-0.979-0.331l-0.184-0.064v5.379c0,2.427,1.329,3.833,3.622,3.833h29.788h14.3c8.019,0,11.14-5.914,11.14-11.266v-4.979V58.649
	c0,0-0.155-11.051-8.824-11.051c8.669,0,8.824-12.164,8.824-12.164V20.352v-2.193C191.228,9.11,188.235,3.003,177.113,3.003z
	 M134.563,3.863c0.049-0.148,0.191-0.227,0.328-0.183c0.137,0.051,0.215,0.203,0.168,0.347c-0.041,0.146-0.189,0.229-0.325,0.182
	C134.594,4.165,134.522,4.006,134.563,3.863z M134.822,17.517l-0.309,1.021l-0.596,0.153l-0.599,0.159l-0.047-0.896l-0.047-0.893
	l0.485-0.443c0.271-0.239,0.698-0.372,0.951-0.283l0.465,0.158L134.822,17.517z M140.915,11.798c0.041-0.146,0.19-0.225,0.325-0.18
	c0.135,0.044,0.211,0.202,0.165,0.344c-0.042,0.146-0.187,0.228-0.32,0.183C140.946,12.099,140.868,11.94,140.915,11.798z
	 M139.42,4.056c0.087-0.285,0.384-0.451,0.658-0.356c0.268,0.094,0.421,0.405,0.334,0.694c-0.087,0.291-0.381,0.448-0.656,0.356
	C139.488,4.657,139.333,4.344,139.42,4.056z M136.176,76.513l-0.133,0.448l-0.652-0.553c-0.362-0.303-0.594-0.763-0.518-1.002
	l0.136-0.455l0.649,0.553C136.021,75.807,136.254,76.262,136.176,76.513z M136.238,12.817l-0.495-0.166l0.166-0.553l0.17-0.56
	l0.395,0.487c0.222,0.272,0.372,0.599,0.331,0.729C136.765,12.882,136.509,12.91,136.238,12.817z M136.937,24.799l-0.326-0.674
	l0.807-0.339l0.812-0.341l0.418,0.959l0.423,0.958l-0.903,0.061l-0.894,0.058L136.937,24.799z M137.881,73.572
	c-0.134-0.048-0.21-0.209-0.165-0.353c0.042-0.136,0.192-0.218,0.32-0.175c0.142,0.045,0.219,0.203,0.176,0.349
	C138.165,73.534,138.02,73.616,137.881,73.572z M139.246,77.215c-0.045,0.142-0.191,0.225-0.333,0.182
	c-0.134-0.05-0.209-0.202-0.164-0.353c0.042-0.143,0.191-0.218,0.325-0.175C139.21,76.912,139.288,77.071,139.246,77.215z
	 M138.707,13.075l0.435-0.238l0.435-0.231l0.229,0.459l0.229,0.461l-0.662-0.228L138.707,13.075z M140.083,24.536
	c-0.142-0.043-0.214-0.197-0.17-0.338c0.046-0.148,0.189-0.232,0.324-0.188c0.14,0.051,0.213,0.207,0.171,0.351
	C140.362,24.503,140.215,24.585,140.083,24.536z M140.904,71.699l-0.66-0.225l0.435-0.239l0.438-0.234l0.223,0.458l0.228,0.466
	L140.904,71.699z M142.289,5.185l-0.418-0.86l0.365-0.197l0.368-0.203l0.05,1.062l0.057,1.058L142.289,5.185z M144.359,11.224
	c0.042-0.146,0.191-0.22,0.325-0.177c0.142,0.051,0.214,0.202,0.172,0.347c-0.047,0.146-0.189,0.226-0.325,0.176
	C144.396,11.524,144.318,11.371,144.359,11.224z M144.576,69.466c-0.134-0.038-0.211-0.202-0.164-0.346
	c0.041-0.144,0.189-0.227,0.324-0.175c0.135,0.043,0.213,0.197,0.166,0.345C144.855,69.431,144.712,69.514,144.576,69.466z
	 M162.886,5.915c0.04-0.146,0.19-0.224,0.324-0.179c0.141,0.048,0.212,0.201,0.171,0.345c-0.041,0.147-0.191,0.229-0.331,0.179
	C162.917,6.217,162.839,6.06,162.886,5.915z M161.418,7.153l0.236-0.782l0.497,0.164l0.496,0.171l-0.236,0.781l-0.239,0.796
	l-0.497-0.169l-0.494-0.165L161.418,7.153z M159.414,12.712l0.396-0.213l-0.339,0.992l-0.343,0.989l-0.056-0.776l-0.054-0.772
	L159.414,12.712z M153.875,12.291c0.119-0.367,0.501-0.932,0.862-1.249l0.651-0.574l0.542,0.676l0.536,0.672l1.162,0.227
	l1.165,0.226l-0.094,0.301c-0.054,0.164-0.44,0.181-0.859,0.039c-0.423-0.146-1.532-0.121-2.47,0.047l-1.708,0.31L153.875,12.291z
	 M158.396,15.39c-0.047,0.147-0.189,0.23-0.331,0.182c-0.134-0.045-0.206-0.2-0.166-0.344c0.042-0.148,0.191-0.227,0.327-0.183
	C158.361,15.094,158.438,15.249,158.396,15.39z M167.541,39.8h-10.797c-2.295,0-3.623-1.28-3.623-3.84v-9.715
	c0-2.558,1.327-3.834,3.623-3.834h11.182c2.331,0,4.012,0.979,4.012,5.094v7.814C171.937,38.157,170.832,39.8,167.541,39.8z
	 M167.541,74.191h-10.797c-2.295,0-3.623-1.28-3.623-3.84v-9.713c0-2.56,1.327-3.838,3.623-3.838h11.182
	c2.331,0,4.012,0.984,4.012,5.097v7.813C171.937,72.548,170.832,74.191,167.541,74.191z M151.846,4.497
	c-0.042,0.146-0.192,0.228-0.33,0.183c-0.137-0.048-0.208-0.203-0.166-0.353c0.041-0.142,0.189-0.22,0.324-0.175
	C151.813,4.199,151.891,4.35,151.846,4.497z"/>
<path fill="#231F20" d="M391.442,88.66v-4.025l-0.443,0.297l-0.037-0.938l-0.047-0.936l0.477,0.005c0.012,0,0.036,0.022,0.053,0.022
	v-8.746c0-2.56-1.202-3.833-3.616-3.833H360.93c-2.295,0-3.615-1.407-3.615-3.84V6.836c0-2.559-1.204-3.833-3.622-3.833H340.19
	c-2.296,0-3.622,1.274-3.622,3.833v76.741c0.023,0.045,0.065,0.067,0.075,0.121c0.026,0.136-0.01,0.273-0.075,0.384v4.578
	c0,2.427,1.326,3.833,3.622,3.833h3.935l-0.056-0.026l0.293-0.46l0.297-0.455l-0.843-0.35l-0.849-0.352l1.132-0.242l1.131-0.233
	l0.719,0.94c0.285,0.372,0.553,0.828,0.702,1.178h41.176C390.24,92.493,391.442,91.212,391.442,88.66z M340.115,89.73
	c-0.118,0.332-0.315,0.629-0.438,0.647c-0.125,0.022-0.269-0.194-0.324-0.496l-0.101-0.543l0.543-0.108l0.544-0.108L340.115,89.73z
	 M340.476,82.917c-0.138,0.028-0.276-0.073-0.304-0.223c-0.03-0.146,0.066-0.29,0.206-0.32c0.141-0.027,0.278,0.068,0.301,0.219
	C340.71,82.739,340.616,82.887,340.476,82.917z M345.127,88.146c-0.14,0.027-0.271-0.063-0.301-0.214
	c-0.025-0.153,0.062-0.294,0.203-0.329c0.139-0.025,0.276,0.078,0.304,0.228C345.365,87.969,345.272,88.119,345.127,88.146z
	 M351.301,81.278c0.146-0.025,0.282,0.069,0.307,0.22c0.022,0.147-0.062,0.296-0.206,0.321c-0.143,0.028-0.281-0.07-0.309-0.219
	C351.069,81.454,351.165,81.305,351.301,81.278z M348.263,82.821l1.085-0.547l0.506,0.367l0.518,0.373l-1.522,0.562l-1.528,0.563
	l-0.073-0.384C347.209,83.539,347.668,83.122,348.263,82.821z M347.115,88.868l-0.682,0.143l0.273-0.432l0.273-0.435l0.405,0.289
	l0.403,0.292L347.115,88.868z M348.522,88.018l-0.548,0.115l0.223-0.606c0.119-0.333,0.319-0.631,0.442-0.656
	c0.125-0.022,0.265,0.204,0.32,0.5l0.099,0.546L348.522,88.018z M350.999,86.957c-0.359,0.372-0.897,0.729-1.177,0.783l-0.513,0.104
	l0.672-0.684c0.367-0.374,0.897-0.729,1.184-0.784l0.512-0.099L350.999,86.957z M383.641,81.454
	c0.139-0.033,0.277,0.063,0.306,0.213c0.024,0.146-0.067,0.297-0.208,0.323c-0.138,0.025-0.272-0.071-0.301-0.22
	C383.407,81.622,383.5,81.48,383.641,81.454z M381.772,85.757c0.144-0.025,0.277,0.073,0.305,0.222
	c0.025,0.152-0.067,0.301-0.208,0.321c-0.138,0.026-0.278-0.065-0.306-0.214C381.538,85.933,381.63,85.79,381.772,85.757z
	 M376.609,80.078c0.338-0.071,0.797,0.083,1.019,0.346c0.232,0.27,0.348,0.487,0.257,0.504c-0.092,0.011-0.546-0.143-1.021-0.345
	L376,80.209L376.609,80.078z M364.64,84.751c0.14-0.033,0.276,0.065,0.304,0.212c0.032,0.147-0.065,0.296-0.206,0.324
	c-0.139,0.032-0.278-0.073-0.306-0.22C364.403,84.92,364.499,84.777,364.64,84.751z M363.306,86.131l0.223-0.613l0.532,0.214
	c0.288,0.121,0.549,0.323,0.573,0.453c0.025,0.133-0.313,0.312-0.754,0.4l-0.79,0.165L363.306,86.131z M362.479,87.429
	c0.142-0.03,0.273,0.075,0.303,0.219c0.023,0.151-0.062,0.294-0.202,0.327c-0.146,0.027-0.276-0.071-0.312-0.219
	C362.241,87.607,362.335,87.455,362.479,87.429z M357.527,87.877l-0.685,0.139l0.279-0.435l0.272-0.435l0.401,0.298l0.408,0.296
	L357.527,87.877z M358.591,82.045c-0.28,0.062-0.553-0.138-0.611-0.438c-0.05-0.302,0.137-0.586,0.415-0.642
	c0.285-0.06,0.554,0.138,0.608,0.433C359.056,81.7,358.873,81.991,358.591,82.045z M360.596,86.59
	c0.045-0.378,0.34-0.843,0.648-1.022l0.567-0.339l0.095,0.528c0.056,0.291-0.244,0.752-0.652,1.021l-0.75,0.493L360.596,86.59z
	 M362.15,90.982l-1.151,0.485l-0.131-0.724l-0.128-0.717l1.191-0.239l1.193-0.242l0.083,0.478l0.093,0.479L362.15,90.982z
	 M363.465,89.476l0.275-0.428l0.273-0.434l0.405,0.289l0.402,0.299l-0.682,0.136L363.465,89.476z M364.796,91.454
	c-0.141,0.025-0.279-0.073-0.312-0.22c-0.025-0.147,0.072-0.298,0.212-0.323c0.141-0.028,0.273,0.07,0.3,0.219
	C365.027,91.283,364.933,91.424,364.796,91.454z M366.282,89.465l-0.506,0.104l-0.146-0.814l-0.149-0.805l-0.766,0.151l-0.766,0.154
	l-0.109-0.582l-0.103-0.579l1.132-0.045l1.131-0.055l0.397,1.184l0.394,1.188L366.282,89.465z M367.446,91.476
	c-0.142,0.025-0.279-0.065-0.306-0.222c-0.027-0.146,0.064-0.294,0.206-0.319c0.14-0.03,0.277,0.068,0.306,0.218
	C367.676,91.305,367.584,91.442,367.446,91.476z M367.991,82.148l0.272,2.143l-0.996,0.36l-0.992,0.362l-0.743-0.86l1.135-1.423
	l-1.69-0.588c0.104-0.635,1.208,0.09,1.69-0.579l0,0L367.991,82.148l0.856-3.247L367.991,82.148l-0.272-2.146L367.991,82.148z
	 M368.844,81.649c-0.139,0.028-0.277-0.074-0.304-0.225c-0.024-0.141,0.066-0.29,0.206-0.317c0.141-0.03,0.28,0.07,0.31,0.214
	C369.077,81.469,368.99,81.619,368.844,81.649z M370.773,84.777l-0.933,0.471l0.135-0.806c0.078-0.449,0.331-0.842,0.562-0.896
	c0.234-0.043,0.595,0.104,0.792,0.339l0.366,0.423L370.773,84.777z M372.171,81.004l-0.103-0.576l0.765-0.151l0.77-0.151
	l0.104,0.586c0.062,0.327,0.642,0.902,1.291,1.281l1.178,0.693l-0.269,0.687l-0.271,0.687l-1.677-1.238
	C373.035,82.139,372.229,81.321,372.171,81.004z M373.333,88.408l-0.272,0.434l-0.13-0.723l-0.129-0.725l0.403,0.29l0.402,0.289
	L373.333,88.408z M373.964,92.396c-0.139,0.03-0.273-0.065-0.3-0.221c-0.031-0.146,0.062-0.292,0.203-0.317
	c0.145-0.032,0.276,0.065,0.304,0.217C374.197,92.226,374.11,92.362,373.964,92.396z M374.228,85.045
	c-0.146,0.028-0.272-0.068-0.306-0.218c-0.022-0.146,0.062-0.298,0.206-0.325c0.142-0.025,0.28,0.073,0.306,0.224
	C374.46,84.87,374.366,85.014,374.228,85.045z M376.709,91.278l-0.986,0.197l-0.421-0.479l-0.417-0.476l0.72-0.477l0.717-0.475
	l0.6,0.242c0.33,0.137,0.642,0.471,0.688,0.751l0.094,0.51L376.709,91.278z M377.565,88.857c-0.142,0.032-0.278-0.07-0.312-0.219
	c-0.021-0.149,0.067-0.29,0.213-0.323c0.146-0.021,0.277,0.069,0.306,0.22C377.797,88.687,377.705,88.831,377.565,88.857z
	 M379.698,83.933l-0.459-0.787l-0.46-0.785l-0.45,0.445l-0.454,0.444l-0.108-0.576c-0.053-0.316,0.108-0.612,0.356-0.663
	c0.243-0.055,1.081,0.274,1.85,0.729l1.401,0.815l-0.84,0.187L379.698,83.933z M382.045,90.192c-0.125,0.335-0.32,0.632-0.438,0.651
	c-0.13,0.026-0.272-0.194-0.33-0.492l-0.094-0.541l0.536-0.11l0.537-0.107L382.045,90.192z M384.178,86.59l-0.91,0.46l0.467-0.893
	l0.465-0.888l-0.832,0.165l-0.826,0.169l-0.134-0.751l-0.141-0.745l0.926-0.471l0.92-0.466l0.484,1.479l0.489,1.479L384.178,86.59z
	 M385.496,78.544c-0.025-0.146,0.064-0.295,0.211-0.32c0.141-0.028,0.271,0.063,0.301,0.219c0.028,0.146-0.062,0.295-0.202,0.324
	C385.664,78.796,385.526,78.693,385.496,78.544z M385.707,79.716l0.413,0.296l0.403,0.29l-0.275,0.435l-0.276,0.428l-0.131-0.723
	L385.707,79.716z M386.42,84.628l-0.272,0.43l-0.129-0.724l-0.13-0.723l0.401,0.295l0.403,0.292L386.42,84.628z M388,85.057
	c-0.141,0.025-0.276-0.071-0.306-0.221c-0.025-0.146,0.062-0.295,0.209-0.32c0.138-0.03,0.271,0.068,0.298,0.212
	C388.229,84.88,388.147,85.028,388,85.057z M389.397,83.582c-0.044-0.025-0.503-0.074-1.024-0.112l-0.939-0.065l-0.087-0.492
	l-0.095-0.498l1.246-0.146l1.234-0.137l-0.118,0.745C389.535,83.294,389.448,83.605,389.397,83.582z M389.65,89.777
	c-0.055-0.302,0.128-0.591,0.411-0.649c0.278-0.058,0.554,0.144,0.604,0.438c0.054,0.303-0.129,0.594-0.407,0.646
	C389.974,90.271,389.7,90.074,389.65,89.777z"/>
<g>
	<path fill="#971B1E" d="M112.228,56.959v0.525c0.193,0.13,0.374-0.069,0.557-0.163c-0.141,0-0.288-0.204-0.495-0.17
		C112.306,57.12,112.272,57.05,112.228,56.959z"/>
	<path fill="#971B1E" d="M120.682,10.061V5.663c0-0.725-0.129-1.412-0.35-2.056c-0.008,0-0.023,0-0.03-0.003
		c-0.022-0.016-0.022-0.056-0.01-0.099c-0.315-0.88-0.822-1.662-1.469-2.292l-0.109,0.018l0.047-0.075
		c-0.663-0.631-1.466-1.105-2.354-1.37l-0.003,0.004c-0.022,0.036-0.073,0.041-0.109,0.015c-0.02-0.015-0.036-0.034-0.038-0.061
		c-0.472-0.124-0.958-0.193-1.469-0.193H19.091c-2.401,0-4.461,1.491-5.379,3.63c0.029,0.022,0.056,0.056,0.078,0.1l-0.146,0.06
		C13.361,4.057,13.2,4.841,13.2,5.664v14.598c0.06,0.034,0.11,0.053,0.168,0.019c-0.038,0.078-0.099,0.131-0.168,0.176v7.179
		c0.022-0.004,0.037-0.009,0.061-0.011L13.2,27.739v5.324c0.16-0.098,0.206-0.235,0.126-0.31c0.269,0.226,0.074,0.271-0.126,0.376
		v0.132c0.348-0.038,0.666-0.149,0.837-0.24l0.156,0.348c-0.127,0.259-0.697,0.365-0.993,0.521v0.683l0.075-0.007L13.2,34.59v0.762
		l0.043,0.017c-0.01,0.044-0.026,0.083-0.043,0.119v4.38c0.055-0.028,0.128-0.043,0.239-0.043l3.538-0.947
		c1.665-0.281-3.238,1.432-2.452,1.813c-0.567-0.138-0.758,0.248-0.479,0.245c-0.144,0.025-0.627,0.125-0.846,0.082v10.676
		c0.079-0.031,0.189-0.052,0.363-0.049c-0.201,0.049-0.307,0.096-0.363,0.146v9.457c0.254-0.014,0.449-0.046,0.219-0.198
		c1.198,0.25-0.15,0.405-0.115,0.647c0.019,0.027,0.039,0.059,0.062,0.078c-0.041-0.025-0.059-0.055-0.062-0.078
		c-0.031-0.052-0.063-0.11-0.103-0.164v9.455c0.118-0.006,0.259-0.046,0.365-0.093l0.243-0.137l0.278,0.293l0.275,0.283
		l-0.084,0.169l-0.087,0.171l0.312,0.556c0.165,0.309,0.338,0.645,0.375,0.748l0.072,0.195l-0.312,0.057l-0.31,0.06l-0.099-0.394
		c-0.056-0.214-0.211-0.699-0.347-1.072l-0.249-0.668L13.5,71.221c-0.072,0.039-0.099,0.131-0.067,0.197l0.067,0.133l-0.271,0.113
		c-0.008,0.005-0.016,0.01-0.027,0.011v5.335c0.004,0.008,0.013,0.008,0.017,0.016c0.019,0.039,0.011,0.075-0.017,0.099v7.584
		l0.06,0.126l0.1,0.206l-0.134-0.058L13.2,84.975v2.866c0,2.463,1.412,4.585,3.437,5.551l-0.037-0.076l-0.081-0.162l0.178,0.02
		c0.098,0.019,0.192,0.056,0.209,0.095c0.02,0.04-0.022,0.099-0.095,0.138l-0.064,0.039c0.714,0.32,1.51,0.502,2.343,0.502h3.026
		l0.007-0.056l0.584-0.266l0.583-0.271l0.14,0.386l0.068,0.207h0.221l0.123-0.139l-0.175-0.336l-0.176-0.33l0.091-0.05
		c0.054-0.023,0.208,0.013,0.348,0.083l0.255,0.139l-0.19,0.633h0.331l-0.024-0.046l0.24-0.011c0.093-0.014,0.187,0.015,0.248,0.056
		h1.273l0.024-0.101l0.049,0.101h88.649c3.255,0,5.895-2.733,5.895-6.109V84.27l-0.089,0.021c0.03-0.021,0.06-0.041,0.089-0.064
		v-1.282c-0.033,0.015-0.065,0.028-0.104,0.039c0.023-0.039,0.063-0.062,0.104-0.08v-0.301c-0.516,0.021,0.032-0.613-0.53-0.434
		c-0.177,0.168-0.103,0.426-0.164,0.537c0.092,0.018,0.25,0.033,0.36,0.016c0.044-0.026,0.078-0.058,0.124-0.079
		c-0.002,0.044-0.055,0.067-0.124,0.079c-0.279,0.189-0.453,0.489-0.459,0.738l0.09-0.024c-0.204,0.41,0.129,0.765,0.186,1.098
		l-0.517,0.102c-0.047-0.291-0.327-0.473-0.04-0.743c0.063,0.053-2.586-0.541-2.899-0.395c-0.548-0.314,3.035-0.066,2.707-0.42
		l-1.69,1.805c-0.414-0.327,2.252-2.386,2.307-2.817c-0.207-0.086-0.334,0.255-0.339,0.092c0.202-0.081,0.021-0.241,0.069-0.392
		c0.339-0.118,0.655-0.044,0.918-0.137v-0.042l-0.307-0.062c0.486-0.225-0.219-0.127,0.214-0.361l-0.306,0.069
		c0.299-0.101,0.246-0.325,0.332-0.309l-0.037,0.198c0.031,0.006,0.067,0.006,0.102,0V62.137c-0.178-0.041-0.385-0.092-0.396-0.146
		c0.162,0.042,0.293-0.042,0.396-0.123v-0.056l-0.269-0.032c0.096-0.059,0.18-0.062,0.269-0.057v-6.994
		c-0.032-0.037-0.025-0.066,0-0.096v-0.141c-0.167,0.06-0.312,0.149-0.39,0.211l-0.134-0.195c0.049-0.162,0.354-0.293,0.525-0.413
		v-0.459l-0.089,0.025l0.089-0.05v-0.424l-0.152-0.021c0.008-0.133,0.067-0.227,0.152-0.315v-0.25c-0.002,0-0.003,0.005-0.007,0.001
		c-0.09-0.082-0.063-0.129,0.007-0.167v-0.433l-0.085,0.064c-0.084-0.068-0.019-0.132,0.085-0.2v-0.215
		c-0.06,0.004-0.121,0.004-0.175-0.01c0.073-0.02,0.127-0.041,0.175-0.058v-7.839c-0.057,0.01-0.121,0.018-0.19,0.028
		c0.021-0.086,0.108-0.077,0.19-0.067v-1.531l-0.021,0.008c-0.13-0.073-0.072-0.092,0.021-0.103V41.4
		c-0.04-0.004-0.08,0-0.129,0.034l0.129-0.075v-1.507c-0.07,0.03-0.14,0.057-0.202,0.086c0.109-0.132,0.015-0.159-0.053-0.257
		c0.141-0.032,0.195,0.006,0.253,0.031v-0.677c-0.263-0.476-0.064-0.968-0.477-1.416c0.41-0.199-0.117-0.396,0.477-0.3v-1.063
		c-0.292,0.059-0.403,0.357-0.483,0.162c-0.365,0.169,0.188,0.057-0.085,0.254l0.298-0.069c-0.312,0.226,0.071,0.14-0.021,0.35
		l-0.26,0.045l-0.096-0.267l-0.335,0.099l0.312-0.224c-0.306-0.214-0.267-0.241-0.701-0.412l0.281-0.155
		c-0.036,0.028-0.079,0.015-0.133,0c0.112-0.127,0.403-0.239,0.281-0.395c-0.621,0.015-0.054,0.184-0.564,0.313l-0.071-0.141
		c-0.358,0-0.143,0.206-0.381,0.131c-0.013,0.008-0.021,0.019-0.036,0.023l-0.053-0.056c0.037,0.017,0.063,0.022,0.089,0.033
		c0.368-0.247,0.482-0.675,1.228-0.838c-0.31-0.093,0.285-0.543-0.229-0.489c-0.022,0.018-0.06,0.024-0.126,0.02
		c0.051-0.008,0.091-0.015,0.126-0.02c0.099-0.049-0.011-0.183,0.252-0.106c-0.056-0.055,0.048-0.225-0.166-0.169
		c0.166-0.308,0.372-0.599,0.811-0.821l-0.002-0.003c-0.109,0.042-0.239,0.078-0.313,0.11l-0.043,0.056
		c-0.02-0.02,0.007-0.038,0.043-0.056l0.14-0.173c-0.05-0.013-0.17,0.03-0.26,0.044c0.176-0.028,0.251-0.084,0.332-0.141
		l0.102,0.161c0.004-0.002,0.012-0.004,0.016-0.005c-0.004,0.003-0.008,0.006-0.014,0.009l0.063,0.101V10.619
		c-0.087-0.063-0.158-0.115-0.189-0.144l-0.147-0.133l0.244-0.206L120.682,10.061z M13.37,62.333l0.063-0.311
		C13.509,62.2,13.717,62.239,13.37,62.333z M103.997-0.324c0.022-0.038,0.073-0.045,0.11-0.015c0.04,0.021,0.057,0.076,0.028,0.112
		c-0.018,0.037-0.068,0.043-0.108,0.017C103.99-0.241,103.977-0.288,103.997-0.324z M21.909,0.144
		c0.092,0.246-0.21,0.734-0.179,1.09C21.279,0.904,21.878,0.54,21.909,0.144z M22.234,1.38l0.032,0.358
		c-0.146-0.062-0.299-0.196-1-0.226L22.234,1.38z M19.401,27.433l0.968-0.161c0.403-0.29-0.634-0.094-0.291-0.207
		c0.418-0.01,0.698-0.013,0.898-0.194c0.09,0.318-0.11,0.496-0.729,0.685l-0.144-0.067c0.13-0.035,0.227-0.088,0.309-0.125
		c-0.54,0.098-0.625,0.362-0.986,0.493l0.186-0.394c-0.141,0.001-0.211-0.031-0.348,0.04l0.131-0.141L19.401,27.433z M19.329,11.668
		c-0.038,0.464-0.472,0.271-0.585,0.632l0.426,0.05c-0.759,0.139,0.667,0.505-0.389,0.442
		C18.969,12.464,17.723,11.776,19.329,11.668z M16.613,1.972c0.012,0.143-0.037,0.393-0.53,0.388
		C16.344,2.129,16.052,2.009,16.613,1.972z M16.612,2.719l-0.57-0.106C16.356,2.272,16.258,2.704,16.612,2.719z M16.375,3.479
		c0.013-0.016,0.028-0.028,0.041-0.043c0.014-0.029,0.011-0.067-0.033-0.134c-0.073-0.031-0.211-0.021-0.278,0.017
		c-0.495-0.077,0.196-0.188-0.102-0.383l0.98,0.014c-0.204,0.148-0.397,0.314-0.567,0.489C16.409,3.453,16.396,3.468,16.375,3.479
		c-0.298,0.312-0.505,0.637-0.529,0.883l-0.128-0.666C15.797,3.435,16.225,3.539,16.375,3.479z M16.607,74.589l-0.167-0.17
		l-0.173-0.166l0.032-0.146l0.034-0.132l0.137,0.307L16.607,74.589z M15.657,24.387l0.054-0.443
		c-0.072-0.062-0.093-0.126,0.021-0.184l0.019-0.146l0.491,0.021c-0.271,0.037-0.422,0.079-0.509,0.125l-0.021,0.184
		C15.897,24.112,16.406,24.284,15.657,24.387z M14.772,21.719c-0.115,0.028-0.282,0.046-0.535,0.042
		C14.453,21.714,14.625,21.705,14.772,21.719c0.585-0.153-0.313-0.659,0.328-0.649c0.216,0.096,0.936,0.357,0.942,0.498
		c-0.288-0.131-0.556,0.02-0.761,0.129l0.5,0.163C15.421,22,15.23,21.757,14.772,21.719z M15.417,34.089l-0.288-0.204l0.272-0.146
		L15.417,34.089z M14.906,20.237l0.406-0.226c0.146,0.138-0.267,0.218-0.47,0.331l0.565,0.053c-0.419,0.015-0.883,0.413-1.447,0.289
		l0.122-0.212l0.635,0.085l0.048-0.387L14.906,20.237z M14.85,5.759l0.365,0.159L15.02,6.104L14.85,5.759z M15.709,71.704
		c0.022,0.043,0.013,0.095-0.026,0.111c-0.036,0.021-0.083,0-0.102-0.037c-0.021-0.045-0.011-0.102,0.026-0.111
		C15.642,71.637,15.689,71.667,15.709,71.704z M15.566,72.081l0.13-0.068l0.114,0.235l0.116,0.231l-0.13,0.068l-0.131,0.074
		l-0.114-0.236l-0.115-0.234L15.566,72.081z M14.467,4.578c-0.266,0.159,0.259,0.587,0.008,0.887l0.421,0.044
		c-0.005-0.069-0.012-0.139-0.083-0.17l0.363,0.157c0.465-0.273,0.148-0.682,0.483-0.877c0.146,0.061,0.358,0.085,0.568,0.11
		l-0.36,0.658l0.136-0.007c-0.453,0.415-0.711-0.104-1.235,0.28c0.067-0.04,0.2-0.115,0.126-0.149h-0.628
		C14.612,5.455,13.787,4.829,14.467,4.578z M14.179,20.134c0.302-0.132-0.163-0.441,0.046-0.616c0.14-0.005,0.275-0.078,0.422-0.016
		c-0.615,0.197-0.256,0.357-0.312,0.607L14.179,20.134c-0.076,0.035-0.198,0.059-0.394,0.063L14.179,20.134z M13.83,21.231
		c0.013-0.024,0.037-0.057,0.084-0.092L13.83,21.231c-0.079,0.168,0.394,0.194,0.458,0.283l-0.634-0.088L13.83,21.231z
		 M13.646,23.527l0.227-0.915c-1.046,0.061,0.45-0.608-0.667-0.576c0.607-0.333,0.631,0.014,1.257-0.037
		c0.019,0.282-0.518,0.646-0.162,0.809c0.415-0.148,0.434,0.2,0.65,0.298C13.41,23.079,15.251,23.451,13.646,23.527z M14.723,38.813
		L14.723,38.813l0.083,0.309L14.723,38.813z M13.751,53.386L13.751,53.386C13.722,53.383,13.726,53.383,13.751,53.386l-0.004-0.071
		l0.415-0.201C14.959,53.579,13.906,53.413,13.751,53.386z M14.322,50.65c-0.054,0.032-0.157,0.048-0.366,0.028
		C14.049,50.695,14.185,50.675,14.322,50.65c0.196-0.123-0.399-0.513,0.313-0.587c0.139,0.037,0.266,0.132,0.388,0.195l0.385-0.014
		c-0.136,0.104-0.261,0.076-0.385,0.014l-0.383,0.015c0.072,0.105-0.131,0.275,0.148,0.28C14.675,50.566,14.497,50.615,14.322,50.65
		z M14.755,51.834l-0.142-0.069l0.481-0.238l0.143,0.071L14.755,51.834z M13.638,84.427c0.038-0.014,0.082,0,0.104,0.042
		c0.022,0.046,0.009,0.096-0.028,0.115c-0.036,0.022-0.081,0-0.103-0.042C13.591,84.496,13.604,84.451,13.638,84.427z M13.53,85.085
		l0.113-0.066l0.237,0.341l0.237,0.331l-0.17,0.095l-0.174,0.093l-0.18-0.365l-0.178-0.362L13.53,85.085z M13.385,83.576
		c0.036-0.021,0.084,0,0.103,0.043c0.021,0.045,0.01,0.094-0.029,0.114c-0.033,0.017-0.08,0-0.098-0.042
		C13.339,83.649,13.346,83.594,13.385,83.576z M13.498,87.214l-0.136-0.055l0.033-0.152l0.038-0.152l0.102,0.209l0.102,0.207
		L13.498,87.214z M13.768,89.215l-0.077-0.159l0.243,0.171c0.13,0.092,0.274,0.232,0.318,0.317l0.072,0.16l-0.238-0.166
		C13.953,89.44,13.812,89.303,13.768,89.215z M14.354,90.083c-0.096-0.011-0.193-0.058-0.211-0.095
		c-0.018-0.036,0.027-0.101,0.1-0.139l0.129-0.068l0.077,0.166l0.083,0.163L14.354,90.083z M14.791,91.139
		c-0.037,0.018-0.082,0-0.104-0.048c-0.022-0.042-0.007-0.087,0.027-0.108c0.035-0.021,0.08,0,0.102,0.036
		C14.836,91.071,14.826,91.118,14.791,91.139z M14.774,90.482l-0.14-0.056l0.037-0.15l0.033-0.149l0.103,0.208l0.102,0.204
		L14.774,90.482z M17.727,81.848l-3.098,0.11l-0.202-0.083l-0.202-0.079l0.085-0.261l0.088-0.257l1.327-1.453l-0.774,1.712
		L17.727,81.848z M14.979,81.119c-0.036,0.019-0.079,0-0.102-0.042c-0.019-0.039-0.01-0.093,0.026-0.114
		c0.036-0.018,0.083,0,0.104,0.049C15.028,81.052,15.014,81.105,14.979,81.119z M15.051,87.207l0.031-0.142l0.035-0.135l0.136,0.311
		l0.135,0.306l-0.167-0.171L15.051,87.207z M15.831,92.755L15.7,92.824l-0.079-0.169l-0.085-0.165l0.178,0.028
		c0.096,0.012,0.193,0.057,0.212,0.091C15.947,92.652,15.901,92.714,15.831,92.755z M16.071,90.687l-0.04,0.362l-0.144-0.066
		l-0.148-0.052l-0.004,0.295l-0.012,0.292l-0.169-0.34l-0.17-0.352l0.17-0.293c0.093-0.167,0.234-0.338,0.312-0.376
		c0.076-0.045,0.164-0.022,0.191,0.046C16.083,90.267,16.093,90.482,16.071,90.687z M15.778,86.438c0.038-0.018,0.081,0,0.102,0.041
		c0.024,0.048,0.007,0.1-0.025,0.111c-0.037,0.021-0.081,0-0.104-0.037C15.732,86.506,15.739,86.461,15.778,86.438z M17.835,74.219
		c-0.109,0.062,0.597,2.675,0.452,2.922l-3.048-1.698l-0.098-0.204c-0.05-0.11-0.091-0.324-0.087-0.473l0.006-0.281l0.243,0.034
		l0.242,0.037l0.272-0.206l0.265-0.205l0.048,0.092C16.154,74.283,17.945,74.168,17.835,74.219z M16.406,90.791l-0.139-0.064
		l0.035-0.146l0.036-0.152l0.103,0.207l0.101,0.212L16.406,90.791z M16.542,86.783l-0.005,0.269l-0.201-0.208l-0.201-0.203
		l0.189-0.106c0.106-0.055,0.199-0.083,0.21-0.063C16.542,86.496,16.546,86.629,16.542,86.783z M16.624,75.075
		c-0.034,0.019-0.083,0-0.104-0.044c-0.02-0.046-0.012-0.094,0.025-0.116c0.039-0.02,2.661-1.447,2.682-1.408
		C19.249,73.553,16.659,75.054,16.624,75.075z M16.812,91.228c-0.035,0.021-0.084,0-0.105-0.046
		c-0.02-0.038-0.006-0.094,0.028-0.108c0.036-0.023,0.082,0,0.102,0.041C16.858,91.153,16.847,91.206,16.812,91.228z M16.636,34.745
		c0.188-0.458,0.201-0.179,0.315-0.669c1.522-0.298-0.538-1.01,0.976-1.52l0.155,0.347l0.134-0.071
		c0.014,0.231-0.058,0.601,0.105,0.702l0.904,2.31c-0.061,0.009-0.869-2.286-0.904-2.31l0,0c-0.128,0.213-0.596,3.574-0.662,0.742
		c-0.07-0.029-0.217-0.169-0.427-0.132l0.345-0.179C16.398,34.15,17.747,34.594,16.636,34.745z M17.235,89.906
		c-0.022-0.044-0.01-0.092,0.025-0.111c0.035-0.018,0.081,0,0.105,0.04c0.019,0.047,0.006,0.095-0.026,0.115
		C17.303,89.97,17.255,89.95,17.235,89.906z M17.231,90.403c-0.037,0.019-0.084,0-0.104-0.036c-0.019-0.053-0.009-0.096,0.027-0.116
		c0.037-0.023,0.084,0,0.1,0.04C17.278,90.336,17.268,90.385,17.231,90.403z M17.07,91.084c0.039-0.016,0.084,0,0.104,0.043
		c0.021,0.047,0.011,0.092-0.027,0.112c-0.037,0.024-0.08,0-0.103-0.039C17.025,91.153,17.034,91.104,17.07,91.084z M17.458,93.342
		l-0.11-0.041l-0.105-0.046l-0.094-0.39l-0.092-0.382l0.118-0.064l0.109-0.064l0.096,0.204c0.051,0.104,0.092,0.327,0.084,0.489
		L17.458,93.342z M17.479,88.386c-0.026-0.043-0.012-0.101,0.025-0.113c0.036-0.02,0.082,0,0.102,0.043
		c0.02,0.041,0.01,0.094-0.027,0.112C17.542,88.449,17.497,88.428,17.479,88.386z M17.909,88.956l-0.09,0.179l-0.128-0.057
		l-0.127-0.052l0.056-0.248l0.057-0.241l0.161,0.115l0.161,0.113L17.909,88.956z M18.155,88.649l-0.137-0.061l0.033-0.148
		l0.035-0.154l0.104,0.211l0.102,0.209L18.155,88.649z M18.314,30.551l0.128-0.216c0.07,0.035,0.147,0.142,0.282,0.068
		L18.314,30.551z M21.43,26.261c-0.146-0.068-0.365-0.24-0.635-0.091l0.004,0.067c-0.904,0.058,0.106-0.566,0.44-0.823l0.143,0.065
		c-0.127,0.217,0.358,0.1,0.43,0.132C21.466,25.658,21.697,26.043,21.43,26.261z M24.578,92.951c-0.038,0.021-0.084,0-0.107-0.048
		c-0.019-0.037-0.006-0.094,0.027-0.105c0.038-0.021,0.085,0,0.104,0.041C24.624,92.881,24.615,92.934,24.578,92.951z
		 M24.777,91.845l-0.174,0.097l0.038-0.147l0.035-0.153l0.133,0.057l0.14,0.057L24.777,91.845z M25.03,90.523
		c-0.032,0.018-0.081,0-0.102-0.046c-0.02-0.039-0.009-0.093,0.026-0.107c0.035-0.024,0.083-0.005,0.104,0.031
		C25.078,90.456,25.072,90.503,25.03,90.523z M25.56,93.607c-0.039,0.019-0.086,0-0.104-0.043c-0.023-0.042-0.011-0.095,0.026-0.113
		c0.034-0.021,0.08,0,0.1,0.043C25.606,93.536,25.594,93.585,25.56,93.607z M53.702,85.397L29.729,38.903h9.396l23.593,46.494
		H53.702z M79.789,85.397h-9.013l23.593-46.494h9.397L79.789,85.397z M100.89,27.459h-16.69c0,0-13.234-1.077-13.234,11.443h-8.051
		c0-12.521-13.236-11.443-13.236-11.443H32.99c-12.467,0-11.891-11.375-11.891-11.375V7.199h7.673v4.847
		c0,0-0.578,6.054,5.179,6.054h21.673c0,0,11.317,0.183,11.317,10.09c0-9.908,11.316-10.09,11.316-10.09h21.68
		c5.753,0,5.174-6.054,5.174-6.054V7.199h7.679l-0.009,8.885C112.781,16.085,113.358,27.459,100.89,27.459z M117.727,84.882
		l2.427,0.384C119.996,85.193,117.55,85.05,117.727,84.882z M119.756,85.308c0.149,0.027,0.207,0.081,0.308,0.103l-0.313,0.018
		l0.016,0.21C119.401,85.649,119.638,85.367,119.756,85.308z M120.174,4.917c0.022-0.036,0.078-0.042,0.11-0.018
		c0.04,0.022,0.054,0.077,0.031,0.111c-0.023,0.034-0.076,0.042-0.11,0.014C120.166,4.996,120.154,4.946,120.174,4.917z
		 M120.234,6.074c-0.019,0.035-0.068,0.042-0.105,0.013c-0.045-0.026-0.053-0.079-0.028-0.115c0.021-0.031,0.068-0.039,0.11-0.011
		C120.245,5.987,120.258,6.035,120.234,6.074z M119.969,4.294l0.109-0.166l0.031,0.15l0.04,0.147l-0.145,0.021l-0.146,0.015
		L119.969,4.294z M119.07,2.049l0.257,0.078l0.091,0.188c0.053,0.104,0.055,0.24,0.019,0.307l-0.082,0.115l-0.268-0.189
		l-0.269-0.191l-0.002-0.192l-0.007-0.19L119.07,2.049z M118.871,9.749c0.073-0.111,0.146-0.437,0.16-0.732l-2.055-0.473l2.263,0.08
		c0.096,0.07,0.232,0.237,0.294,0.375l0.12,0.245l-0.23,0.089l-0.231,0.093l-0.146,0.319l-0.138,0.312l-0.085-0.055
		C118.783,9.97,118.802,9.857,118.871,9.749z M118.699,10.055l0.033,0.137l0.033,0.137l-0.261-0.201l-0.258-0.198l0.226,0.061
		L118.699,10.055z M118.205,2.012c0.021-0.037,0.069-0.04,0.111-0.019c0.036,0.028,0.05,0.08,0.024,0.117
		c-0.018,0.031-0.068,0.038-0.108,0.014C118.196,2.095,118.184,2.049,118.205,2.012z M118.098,44.295
		c-0.089-0.008-0.174-0.053-0.258-0.075l-0.236,0.055c0.075-0.082,0.153-0.077,0.236-0.055l0.236-0.056
		c-0.057-0.055,0.048-0.186-0.124-0.154c0.069-0.024,0.175-0.074,0.276-0.116c0.03-0.028,0.092-0.048,0.223-0.061
		c-0.059,0.002-0.142,0.027-0.223,0.061C118.122,43.991,118.53,44.163,118.098,44.295z M118.297,42.186l-0.235,0.173
		c-0.538-0.191,0.127-0.214,0.224-0.216L118.297,42.186z M117.93,43.241l-0.271,0.205l-0.095-0.025l0.271-0.204L117.93,43.241z
		 M118.219,36.067l0.225-0.213l0.012,0.041L118.219,36.067z M116.977,8.545c-0.025,0.034,0.289,3.313,0.25,3.286
		c-0.037-0.03,0.761-2.281,0.786-2.319 M117.563,36.592l-0.005,0.197C117.492,36.693,117.362,36.693,117.563,36.592z
		 M117.675,36.982c0.077,0.088,0.153,0.219,0.434,0.135c0.15,0.086-0.778,0.129-0.438,0.271
		C116.917,37.378,117.698,37.128,117.675,36.982z M116.874,0.311c0.024-0.032,0.073-0.042,0.11-0.013
		c0.037,0.028,0.053,0.077,0.031,0.112c-0.025,0.039-0.078,0.04-0.109,0.015C116.865,0.395,116.851,0.349,116.874,0.311z
		 M116.608,2.724l0.039-0.266l0.218-0.028l0.219-0.027l0.037,0.271l0.043,0.268l-0.302,0.025l-0.307,0.025L116.608,2.724z
		 M116.862,3.468c-0.021,0.036-0.075,0.04-0.11,0.014c-0.042-0.027-0.053-0.075-0.03-0.112c0.02-0.035,0.076-0.042,0.112-0.015
		C116.868,3.385,116.884,3.435,116.862,3.468z M113.977,62.385l2.602-2.167c0.056-0.148-0.23-0.02-0.277-0.032
		c0.208-0.068,0.026-0.275,0.167-0.441c0.093,0.024,0.248,0.105,0.396-0.02l-0.005-0.042
		C117.407,59.54,114.154,62.188,113.977,62.385z M117.6,58.823l-0.01-0.043l-0.577,0.215c-0.217,0.225,0.399-0.019,0.2,0.092
		c-0.256,0.055-2.63,0.131-2.736,0.266c-0.088-0.186,2.222-0.357,2.58-0.547l0.093,0.024c-0.073,0.036-0.128,0.079-0.173,0.112
		c0.32-0.121,0.346-0.295,0.555-0.419l-0.07,0.263c0.083-0.018,0.13-0.004,0.209-0.066L117.6,58.823z M117.727,62.637l-0.432-4.738
		c-0.715,0.018-0.865-0.064-1.159,0.023l-3.352,0.039l3.684,1.783c-0.413-0.025,0.016-1.854-0.332-1.822
		c0.437-0.049-1.254-2.939-1.159-3.121c0.238-0.137,1.632,2.637,1.879,2.541c0.199-0.312-3.877,0.67-4.071,0.619
		c0.514-0.309,3.392-1.242,4.008-1.482l-0.297-0.121c-0.182-0.207,0.371-0.143,0.178-0.396c-0.205,0.068-0.141-0.038-0.349,0.03
		c0.017-0.118-0.375-0.465,0.159-0.686c0.104,0.067,0.173,0.168-0.085,0.217c0.104,0.07,0.446,0,0.511-0.104
		c0.041-0.23,0.441-0.447-0.039-0.574c0.212-0.066,0.25-0.094,0.268-0.211c-0.088,0.02-0.136,0.006-0.161,0.077l-0.039-0.171
		c-0.028,0.008-0.046,0.009-0.063,0.011c-0.019,0.015-0.039,0.028-0.059,0.036c-0.009-0.027,0.02-0.033,0.059-0.036
		c0.103-0.079,0.202-0.22,0.161-0.286c-0.051,0.014-0.105,0.012-0.165-0.021c0.094-0.02,0.145-0.006,0.165,0.021
		c0.153-0.041,0.252-0.256,0.345-0.17c-0.069,0.506-0.202,1.113,0.088,1.594c0.015-0.014,0.04-0.029,0.056-0.051l0.01-0.055
		c0.028,0.007,0.013,0.029-0.01,0.055l-0.029,0.179l-0.284-0.074c-0.017,0.317,0.086,0.383,0.555,0.467
		c-0.132,0.003-0.346,0.071-0.323,0.157c0.135-0.01,0.209-0.066,0.269-0.012c-0.257,0.255-0.158,0.48-0.342,0.678
		c-0.074,0.057,0.619-0.043,0.711,0.141c0,0-0.21,0.266,0.056,0.256C117.912,57.656,118.042,62.637,117.727,62.637z M117.926,56.735
		l-0.056,0.147c-0.046-0.013-0.104-0.065-0.18-0.009L117.926,56.735z M118.386,54.404c-0.903,0.364,0.438,0.559-0.437,1.051
		l-0.135-0.194l-0.072,0.06c-0.032-0.143-0.028-0.376-0.143-0.421l0.406,0.007c0.055-0.146-0.114-0.312-0.078-0.542
		c0.049,0.011,0.153,0.078,0.275,0.029l-0.19,0.153c0.707-0.257-0.173-0.368,0.493-0.593
		C118.441,54.26,118.405,54.087,118.386,54.404z M118.961,75.177c0.313,0.151-0.016,0.442,0.008,0.689
		C118.886,75.73,119.022,75.394,118.961,75.177z M119.29,76.547l-0.141,0.132l-0.101-0.183L119.29,76.547z M119.218,74.949
		l-0.58,0.197l-0.058-0.216C118.675,74.951,118.783,75.017,119.218,74.949z M119.011,51.162l0.154-0.118l0.087,0.182L119.011,51.162
		z M118.987,77.413c-0.071,0.066-0.195,0.124-0.134,0.176c0.277,0.019,0.34-0.252,0.318-0.177c0.155,0.074-0.283,0.305,0.03,0.29
		l-0.567,0.08C119.117,77.727,118.536,77.601,118.987,77.413z M119.061,79.786c0.12-0.218-0.315,0.019-0.109-0.225l0.421,0.047
		C119.252,79.663,119.192,79.775,119.061,79.786z M119.301,77.24l-0.089,0.021l0.175-0.207L119.301,77.24z M119.537,67.718
		c-0.079,0.222,0.762,0.502-0.215,0.754c-0.026-0.289,0.262-0.22,0.292-0.455l-0.267,0.02
		C119.8,67.858,118.882,67.804,119.537,67.718z M119.329,54.211l0.201,0.095l-0.154,0.121L119.329,54.211z M119.822,77.632
		c0.496-0.015-0.099,0.306,0.069,0.423C119.345,78.059,119.772,77.782,119.822,77.632z M119.672,78.738
		c0.376-0.124,0.184-0.325,0.243-0.434l0.086,0.465C119.906,78.745,119.796,78.682,119.672,78.738z M120.256,79.67l-0.324,0.137
		C119.979,79.655,120.256,79.67,120.256,79.67z M119.829,81.045l-0.052-0.175l0.162,0.076L119.829,81.045z M120.22,60.21
		l0.016,0.281c0.051,0.03,0.073,0.066,0.006,0.118l0.004,0.092l-0.304,0.043c0.163-0.056,0.252-0.098,0.3-0.133l-0.006-0.118
		C120.101,60.409,119.772,60.362,120.22,60.21z M119.829,37.507l0.158,0.127l-0.423,0.115L119.829,37.507z M120.012,49.792
		c-0.161-0.125-0.26,0.05-0.372,0.138c0.09-0.016,0.2,0.095,0.324,0.049c-0.03,0.073,0.398,0.387-0.032,0.471l-0.4,0.012
		c-3.555-0.209,0.165-0.277-0.36-0.417c0.362,0.019-1.444-2.217,0.271-0.207C119.567,49.792,120.138,49.547,120.012,49.792z
		 M119.202,36.08c-0.165,0.069,0.143,0.285-0.328,0.381C119.283,36.264,118.615,36.264,119.202,36.08z M119.316,37.836
		c0.267-0.003-0.073,0.099-0.151,0.158l0.162,0.125l-0.459-0.053C119.001,38.062,119.29,37.948,119.316,37.836z M119.345,40.287
		l-0.601,0.104C118.908,40.318,119.188,40.159,119.345,40.287z M118.925,42.645c0.282,0.082,0.189,0.054,0.179,0.211
		c-0.299,0.075-0.084,0.258-0.513,0.334C119.082,42.969,118.585,42.949,118.925,42.645z M118.703,32.926l0.132,0.24l-0.48,0.056
		l0.259-0.282c-0.126,0.042-0.306,0.025-0.385,0.085c0.007-0.198,0.732-0.619,0.929-1l0.275,0.042
		c-0.026-0.126,0.386-0.319,0.07-0.336l0.518-0.08c-0.07,0.097-0.226,0.21,0.08,0.181C119.574,32.349,119.77,32.689,118.703,32.926z
		 M120.45,12.005c-0.021,0.03-0.068,0.037-0.112,0.012c-0.036-0.022-0.05-0.076-0.029-0.112c0.028-0.035,0.076-0.043,0.116-0.014
		C120.46,11.92,120.472,11.968,120.45,12.005z M120.38,11.487l-0.083,0.125l-0.081,0.129l-0.21-0.148l-0.204-0.148l0.084-0.125
		l0.077-0.131l0.21,0.149L120.38,11.487z"/>
</g>
</svg>
